<svg width="406" height="403" viewBox="0 0 406 403" fill="none" xmlns="http://www.w3.org/2000/svg">
<g filter="url(#filter0_d)">
<path d="M209.751 351.751C303.072 351.751 378.722 276.1 378.722 182.778C378.722 89.4573 303.072 13.8058 209.751 13.8058C116.43 13.8058 40.7782 89.4573 40.7782 182.778C40.7782 276.1 116.43 351.751 209.751 351.751Z" stroke="#D1E8F7" stroke-width="0.902903" stroke-miterlimit="10"/>
<path d="M72.2883 89.5143C75.5753 89.5143 78.24 86.8497 78.24 83.5626C78.24 80.2756 75.5753 77.6114 72.2883 77.6114C69.0018 77.6114 66.3371 80.2756 66.3371 83.5626C66.3371 86.8497 69.0018 89.5143 72.2883 89.5143Z" fill="#FEBB94"/>
<path d="M378.722 195.165C382.01 195.165 384.677 192.501 384.677 189.214C384.677 185.927 382.01 183.262 378.722 183.262C375.438 183.262 372.772 185.927 372.772 189.214C372.772 192.501 375.438 195.165 378.722 195.165Z" fill="#5661AE"/>
<path d="M216.682 357.703C219.968 357.703 222.633 355.038 222.633 351.751C222.633 348.464 219.968 345.8 216.682 345.8C213.395 345.8 210.73 348.464 210.73 351.751C210.73 355.038 213.395 357.703 216.682 357.703Z" fill="#1C85E8"/>
<path d="M213.666 309.941C283.281 309.941 339.715 253.507 339.715 183.892C339.715 114.276 283.281 57.8422 213.666 57.8422C144.05 57.8422 87.6163 114.276 87.6163 183.892C87.6163 253.507 144.05 309.941 213.666 309.941Z" stroke="#D1E8F7" stroke-width="0.673546" stroke-miterlimit="10"/>
<path d="M337.554 213.722C340.006 213.722 341.994 211.734 341.994 209.282C341.994 206.83 340.006 204.842 337.554 204.842C335.102 204.842 333.114 206.83 333.114 209.282C333.114 211.734 335.102 213.722 337.554 213.722Z" fill="#FEBB94"/>
<path d="M96.7571 235.701C99.2092 235.701 101.197 233.713 101.197 231.261C101.197 228.809 99.2092 226.822 96.7571 226.822C94.3053 226.822 92.3177 228.809 92.3177 231.261C92.3177 233.713 94.3053 235.701 96.7571 235.701Z" fill="#5661AE"/>
<path d="M157.204 75.5159C159.656 75.5159 161.644 73.5282 161.644 71.076C161.644 68.6243 159.656 66.6366 157.204 66.6366C154.752 66.6366 152.765 68.6243 152.765 71.076C152.765 73.5282 154.752 75.5159 157.204 75.5159Z" fill="#1C85E8"/>
<path d="M279.27 323.475H133.703C127.387 323.475 122.76 318.355 123.367 312.039L148.216 53.5366C148.823 47.2212 154.435 42.1015 160.75 42.1015H306.317C312.633 42.1015 317.26 47.2212 316.653 53.5366L291.803 312.039C291.197 318.355 285.585 323.475 279.27 323.475Z" fill="#1C85E8"/>
<path d="M269.01 323.475H123.443C117.128 323.475 112.501 318.355 113.108 312.039L137.957 53.5366C138.564 47.2212 144.176 42.1015 150.491 42.1015H296.059C302.373 42.1015 307.001 47.2212 306.394 53.5366L281.545 312.039C280.937 318.355 275.326 323.475 269.01 323.475Z" fill="url(#paint0_linear)"/>
<path d="M263.494 314.881H130.612C124.76 314.881 120.471 310.137 121.034 304.284L144.392 61.2922C144.955 55.4394 150.155 50.6952 156.008 50.6952H288.89C294.742 50.6952 299.031 55.4394 298.468 61.2922L275.11 304.284C274.547 310.137 269.347 314.881 263.494 314.881Z" fill="white"/>
<path d="M274.15 161.236L131.602 161.109C131.02 161.125 130.441 161.016 129.904 160.791C129.367 160.565 128.884 160.227 128.489 159.8C128.092 159.373 127.792 158.866 127.608 158.314C127.423 157.761 127.358 157.176 127.418 156.596L135.103 71.2621C135.242 70.0306 135.827 68.8928 136.748 68.0632C137.668 67.2331 138.86 66.769 140.099 66.7572L282.647 66.884C283.229 66.8684 283.808 66.9768 284.345 67.2025C284.882 67.4286 285.365 67.7659 285.761 68.1932C286.157 68.6205 286.457 69.127 286.642 69.6796C286.826 70.2318 286.891 70.8174 286.831 71.3969L279.146 156.731C279.007 157.962 278.422 159.1 277.501 159.93C276.581 160.76 275.389 161.224 274.15 161.236Z" fill="url(#paint1_linear)"/>
<path d="M269.662 253.184H209.412C208.968 253.193 208.527 253.106 208.119 252.93C207.711 252.754 207.346 252.492 207.047 252.162C206.75 251.832 206.526 251.443 206.392 251.019C206.257 250.595 206.215 250.147 206.269 249.706L213.584 173.603C213.69 172.66 214.135 171.787 214.836 171.147C215.538 170.507 216.447 170.144 217.397 170.125H277.647C278.091 170.116 278.532 170.203 278.94 170.38C279.348 170.556 279.713 170.818 280.011 171.148C280.309 171.477 280.533 171.867 280.667 172.291C280.802 172.715 280.844 173.162 280.79 173.603L273.474 249.706C273.369 250.65 272.924 251.523 272.223 252.162C271.522 252.802 270.611 253.165 269.662 253.184Z" fill="url(#paint2_linear)"/>
<path d="M255.298 211.202C262.093 204.726 262.833 194.473 256.95 188.301C251.067 182.129 240.791 182.375 233.996 188.851C227.202 195.327 226.462 205.58 232.345 211.752C238.227 217.924 248.504 217.678 255.298 211.202Z" stroke="#EF6A77" stroke-width="5.50733" stroke-miterlimit="10"/>
<path d="M237.009 214.996C231.373 212.562 227.8 206.776 228.449 200.026C229.309 191.08 237.258 183.828 246.204 183.828" stroke="white" stroke-width="5.50733" stroke-miterlimit="10" stroke-linecap="round"/>
<path d="M235.672 228.921H248.067" stroke="white" stroke-width="2.81908" stroke-miterlimit="10" stroke-linecap="round"/>
<path d="M234.322 242.959H246.718" stroke="white" stroke-width="2.81908" stroke-miterlimit="10" stroke-linecap="round"/>
<path opacity="0.4" d="M228.394 235.86H254.011" stroke="white" stroke-width="2.81908" stroke-miterlimit="10" stroke-linecap="round"/>
<path d="M195.98 253.184H135.731C135.286 253.193 134.845 253.106 134.437 252.93C134.029 252.754 133.664 252.492 133.366 252.162C133.068 251.832 132.844 251.443 132.71 251.019C132.575 250.595 132.534 250.147 132.587 249.706L139.902 173.603C140.008 172.66 140.453 171.787 141.154 171.147C141.856 170.507 142.765 170.144 143.715 170.125H203.965C204.409 170.116 204.85 170.203 205.258 170.38C205.666 170.556 206.031 170.818 206.329 171.148C206.628 171.477 206.851 171.867 206.986 172.291C207.12 172.715 207.162 173.162 207.108 173.603L199.793 249.706C199.687 250.65 199.242 251.523 198.541 252.162C197.84 252.802 196.93 253.165 195.98 253.184Z" fill="#FEBB94"/>
<path d="M181.617 211.202C188.411 204.726 189.15 194.473 183.268 188.301C177.386 182.129 167.108 182.375 160.314 188.851C153.519 195.327 152.78 205.58 158.663 211.752C164.545 217.924 174.822 217.678 181.617 211.202Z" stroke="#EF6A77" stroke-width="5.50733" stroke-miterlimit="10"/>
<path d="M187.164 200.026C186.304 208.972 178.355 216.224 169.408 216.224C160.462 216.224 153.907 208.972 154.767 200.026C155.627 191.08 163.576 183.828 172.523 183.828" stroke="white" stroke-width="5.50733" stroke-miterlimit="10" stroke-linecap="round"/>
<path d="M161.99 228.921H174.385" stroke="white" stroke-width="2.81908" stroke-miterlimit="10" stroke-linecap="round"/>
<path d="M160.64 242.959H173.036" stroke="white" stroke-width="2.81908" stroke-miterlimit="10" stroke-linecap="round"/>
<path opacity="0.4" d="M154.712 235.86H180.329" stroke="white" stroke-width="2.81908" stroke-miterlimit="10" stroke-linecap="round"/>
<path d="M264.612 307.617H130.316C129.895 307.625 129.477 307.543 129.091 307.376C128.704 307.209 128.358 306.96 128.075 306.648C127.793 306.336 127.581 305.966 127.453 305.564C127.326 305.163 127.286 304.739 127.337 304.321L131.344 262.633C131.444 261.739 131.866 260.911 132.531 260.304C133.196 259.698 134.058 259.354 134.958 259.336H269.253C269.674 259.328 270.092 259.41 270.478 259.578C270.865 259.745 271.211 259.993 271.494 260.305C271.776 260.618 271.988 260.987 272.116 261.389C272.243 261.79 272.282 262.214 272.232 262.633L268.225 304.321C268.124 305.215 267.703 306.042 267.038 306.648C266.374 307.255 265.511 307.599 264.612 307.617Z" fill="url(#paint3_linear)"/>
<path d="M139.668 297.951L141.563 278.243" stroke="white" stroke-width="5.50733" stroke-miterlimit="10" stroke-linecap="round"/>
<path d="M153.569 284.145L152.242 297.951" stroke="white" stroke-width="5.50733" stroke-miterlimit="10" stroke-linecap="round"/>
<path d="M165.689 288.86L164.815 297.951" stroke="white" stroke-width="5.50733" stroke-miterlimit="10" stroke-linecap="round"/>
<path d="M179.775 273.121L177.388 297.951" stroke="white" stroke-width="5.50733" stroke-miterlimit="10" stroke-linecap="round"/>
<path d="M190.836 288.86L189.962 297.951" stroke="white" stroke-width="5.50733" stroke-miterlimit="10" stroke-linecap="round"/>
<path d="M204.817 274.218L202.535 297.951" stroke="white" stroke-width="5.50733" stroke-miterlimit="10" stroke-linecap="round"/>
<path d="M216.056 288.097L215.108 297.951" stroke="white" stroke-width="5.50733" stroke-miterlimit="10" stroke-linecap="round"/>
<path d="M228.186 292.702L227.682 297.951" stroke="white" stroke-width="5.50733" stroke-miterlimit="10" stroke-linecap="round"/>
<path d="M242.149 278.243L240.255 297.951" stroke="white" stroke-width="5.50733" stroke-miterlimit="10" stroke-linecap="round"/>
<path d="M255.444 270.739L252.828 297.951" stroke="white" stroke-width="5.50733" stroke-miterlimit="10" stroke-linecap="round"/>
<path d="M143.149 148.15L150.696 159.973C151.037 160.507 151.152 161.153 151.019 161.772C150.884 162.391 150.512 162.931 149.981 163.277L148.761 164.069C146.719 165.396 144.265 165.936 141.855 165.59C139.445 165.243 137.242 164.033 135.657 162.185L125.641 150.505L143.149 148.15Z" fill="#FFCCB3"/>
<path d="M137.389 152.7C137.389 152.7 140.184 162.296 145.799 165.374C147.256 164.81 148.657 164.107 149.981 163.277L143.685 152.7" fill="#FCBA9F"/>
<path d="M8.27023 195.853L37.9157 181.646C40.7089 180.308 43.0707 178.212 44.7328 175.598L73.3714 130.548C75.1542 127.743 77.7402 125.54 80.7926 124.225L122.041 106.454L113.21 173.235L113.055 175.702C113.055 175.702 102.145 203.958 75.4048 214.223L32.6527 240.372L8.27023 195.853Z" fill="#FFCCB3"/>
<path d="M40.5323 180.079C40.5323 180.079 54.5557 215.081 75.4048 214.223L62.0932 222.365C62.0932 222.365 16.9111 213.984 33.8239 183.538L40.5323 180.079Z" fill="#FCBA9F"/>
<path d="M115.656 118.813C115.656 118.813 101.072 127.65 101.846 148.15L119.36 141.606L115.656 118.813Z" fill="#FCBA9F"/>
<path d="M152.293 148.15L159.84 159.973C160.181 160.507 160.296 161.153 160.163 161.772C160.029 162.391 159.656 162.931 159.125 163.277L157.905 164.069C155.863 165.396 153.409 165.936 150.999 165.59C148.589 165.243 146.386 164.033 144.801 162.185L134.786 150.505L152.293 148.15Z" fill="#FFCCB3"/>
<path d="M263.87 152.813L121.321 152.686C120.739 152.701 120.16 152.593 119.623 152.367C119.086 152.141 118.604 151.803 118.208 151.377C117.812 150.949 117.511 150.443 117.327 149.89C117.142 149.338 117.078 148.752 117.137 148.173L124.822 62.8384C124.962 61.6069 125.546 60.4691 126.467 59.6395C127.387 58.8098 128.579 58.3453 129.819 58.3335L272.366 58.4607C272.949 58.4447 273.528 58.5535 274.065 58.7792C274.601 59.0049 275.084 59.3427 275.48 59.7695C275.876 60.1968 276.176 60.7037 276.361 61.2559C276.546 61.8085 276.61 62.3941 276.551 62.9731L268.866 148.308C268.726 149.539 268.141 150.677 267.221 151.507C266.301 152.336 265.109 152.801 263.87 152.813Z" fill="#1C85E8"/>
<path d="M130.759 108.959C130.759 108.959 143.555 106.371 146.999 112.376C150.442 118.38 153.412 129.655 162.574 128.202C171.737 126.748 178.75 97.2681 187.758 97.5371C196.766 97.8061 193.59 117.114 203.394 117.383C213.198 117.653 211.455 106.598 217.989 106.906C225.916 107.28 222.961 130.186 233.296 130.456C243.632 130.726 245.319 100.199 260.943 100.735" stroke="white" stroke-width="3.56408" stroke-miterlimit="10" stroke-linecap="round"/>
<path d="M138.037 72.6255L163.117 72.6477" stroke="white" stroke-width="5.65305" stroke-miterlimit="10" stroke-linecap="round"/>
<path opacity="0.4" d="M137.002 84.1219L188.83 84.1681" stroke="white" stroke-width="5.65305" stroke-miterlimit="10" stroke-linecap="round"/>
<path d="M88.4756 152.389L106.762 144.335L125.462 131.57C130.38 128.213 140.651 126.701 144.348 131.367C148.109 136.115 143.884 145.505 139.323 149.488L122.041 164.58L113.054 175.702L88.4756 152.389Z" fill="#FFCCB3"/>
<path d="M125.641 136.417C125.641 136.417 128.11 145.937 134.51 147.584L141.299 141.848C141.988 141.336 142.564 140.688 142.994 139.946C143.425 139.203 143.699 138.38 143.801 137.528C143.902 136.676 143.83 135.812 143.587 134.989C143.344 134.166 142.936 133.401 142.387 132.741C141.429 131.588 140.093 130.812 138.617 130.553C137.14 130.294 135.62 130.568 134.327 131.327L125.641 136.417Z" stroke="#FF967C" stroke-width="1.41337" stroke-linecap="round"/>
<path d="M39.0421 180.469C39.0421 180.469 35.4983 205.813 66.3371 220.325C66.3371 220.325 44.1839 240.647 35.643 244.064C27.1024 247.48 -4.98717 212.562 6.42626 192.743C9.62707 187.185 39.0421 180.469 39.0421 180.469Z" fill="#1C85E8"/>
<path d="M155.891 153.786C155.891 153.786 143.871 154.031 139.687 156.221L136.667 152.699L155.197 152.7L155.891 153.786Z" fill="#FCBA9F"/>
<path d="M377.205 152.813H291.741C285.303 152.813 280.546 147.593 281.116 141.156L292.583 11.6565C293.153 5.21912 298.833 2.28882e-05 305.271 2.28882e-05H390.735C397.176 2.28882e-05 401.929 5.21912 401.359 11.6565L389.892 141.156C389.322 147.593 383.64 152.813 377.205 152.813Z" fill="#FEBB94"/>
<path d="M364.97 73.1226C378.505 60.1756 379.867 39.6389 368.018 27.2526C356.168 14.8663 335.591 15.3205 322.058 28.2674C308.525 41.2143 307.161 61.7511 319.011 74.1374C330.861 86.5241 351.439 86.0695 364.97 73.1226Z" fill="white"/>
<path d="M345.325 51.7029L366.779 71.2696C366.779 71.2696 371.66 66.0237 373.115 62.2745L345.325 51.7029Z" fill="url(#paint4_linear)"/>
<path d="M346.754 14.1163L343.705 48.5445C343.637 49.1716 343.755 49.8048 344.042 50.3664C344.33 50.9275 344.776 51.392 345.325 51.703L374.435 67.9086C374.435 67.9086 391.72 19.685 346.754 14.1163Z" fill="#1C85E8"/>
<path d="M301.191 106.977H336.597" stroke="white" stroke-width="5.65348" stroke-miterlimit="10" stroke-linecap="round"/>
<path d="M298.599 136.249H334.005" stroke="white" stroke-width="5.65348" stroke-miterlimit="10" stroke-linecap="round"/>
<path opacity="0.4" d="M299.91 121.448H373.078" stroke="white" stroke-width="5.65348" stroke-miterlimit="10" stroke-linecap="round"/>
<path d="M272.1 248.214C272.1 248.214 283.513 245.17 289.587 251.71C289.587 251.71 300.505 249.728 304.943 255.801C304.943 255.801 314.623 256.362 317.426 260.31C319.757 260.632 321.961 261.565 323.814 263.016C325.667 264.466 327.103 266.381 327.975 268.567C330.622 274.805 328.377 310.87 325.746 323.793C325.089 327.026 325.314 330.376 326.399 333.491L333.091 352.721L286.79 372.077L275.798 343.406C275.798 343.406 262.418 321.903 260.506 318.08C258.594 314.257 261.834 282.535 255.309 262.718L272.1 248.214Z" fill="#FFCCB3"/>
<path d="M281.77 358.982L280.434 355.498C280.434 355.498 304.459 353.962 326.399 333.491L328.497 339.521C328.497 339.521 325.787 351.978 313.45 357.848C301.111 363.719 281.77 358.982 281.77 358.982Z" fill="#FCBA9F"/>
<path d="M281.77 358.982C281.77 358.982 310.851 361.631 328.497 339.521C328.497 339.521 335.012 342.937 345.017 367.944C348.089 375.626 296.78 402.973 288.484 391.605C288.484 391.605 281.322 376.455 281.77 358.982Z" fill="#5661AE"/>
<path d="M258.154 274.681C258.154 274.681 257.151 280.003 252.408 280.004C249.314 280.004 235.902 275.951 226.949 273.134C224.514 272.368 221.901 272.368 219.465 273.134C217.03 273.901 214.888 275.397 213.33 277.42L212.786 278.127C212.516 278.477 212.32 278.878 212.209 279.307C212.098 279.735 212.076 280.181 212.143 280.618C212.21 281.056 212.365 281.475 212.599 281.85C212.832 282.226 213.14 282.55 213.503 282.803C221.082 288.095 241.548 302.455 244.165 305.073C247.387 308.294 265.325 326.353 265.325 326.353L258.154 274.681Z" fill="#FFCCB3"/>
<path d="M257.066 269.349C257.066 269.349 266.76 282.471 265.325 285.343C263.89 288.216 248.858 279.433 248.858 279.433C248.858 279.433 260.988 282.554 257.066 269.349Z" fill="#FCBA9F"/>
<path d="M255.309 262.718L238.996 213.181C238.437 211.482 238.224 209.687 238.371 207.904C238.518 206.121 239.022 204.385 239.852 202.801C240.682 201.216 241.822 199.814 243.204 198.678C244.586 197.542 246.182 196.695 247.897 196.188C249.302 195.773 250.809 195.885 252.136 196.504C253.463 197.123 254.518 198.206 255.102 199.548L277.987 252.154L255.309 262.718Z" fill="#FFCCB3"/>
<path d="M248.235 241.236C248.697 241.996 249.311 242.651 250.039 243.162C250.767 243.673 251.592 244.028 252.463 244.205" stroke="#FF967C" stroke-width="1.41337" stroke-linecap="round"/>
<path d="M254.104 215.877C256.089 214.997 258.278 213.768 259.22 212.333L253.146 197.911C253.016 197.6 252.821 197.32 252.575 197.091C252.328 196.861 252.036 196.686 251.717 196.578C251.398 196.469 251.06 196.43 250.725 196.463C250.389 196.495 250.065 196.598 249.773 196.766C247.611 198.013 244.758 200.264 244.647 203.496L248.755 213.719C248.957 214.219 249.257 214.672 249.638 215.053C250.019 215.433 250.472 215.733 250.971 215.935C251.471 216.136 252.005 216.235 252.544 216.225C253.082 216.215 253.613 216.096 254.104 215.877Z" stroke="#FF967C" stroke-width="1.41337" stroke-linecap="round"/>
<path d="M276.146 247.922L281.77 260.31" stroke="#FF967C" stroke-width="1.41337" stroke-linecap="round"/>
<path d="M289.811 251.964C292.669 256.061 294.201 260.936 294.199 265.932" stroke="#FF967C" stroke-width="1.41337" stroke-linecap="round"/>
<path d="M305.212 256.033C305.212 256.033 308.043 262.526 308.277 267.66" stroke="#FF967C" stroke-width="1.41337" stroke-linecap="round"/>
<path d="M317.822 260.695C318.937 263.435 319.37 266.405 319.082 269.349" stroke="#FF967C" stroke-width="1.41337" stroke-linecap="round"/>
<path d="M225.481 288.86C225.481 288.86 228.831 284.606 227.682 282.472C226.533 280.338 221.421 277.321 218.467 277.649C217.058 277.862 215.698 278.325 214.452 279.017C214.225 279.136 214.034 279.311 213.897 279.527C213.759 279.743 213.68 279.99 213.667 280.245C213.655 280.501 213.709 280.755 213.825 280.983C213.941 281.211 214.115 281.404 214.329 281.544L225.481 288.86Z" stroke="#FF967C" stroke-width="1.41337" stroke-linecap="round"/>
<path d="M167.876 340.732H65.824C65.4028 340.74 64.9849 340.658 64.5982 340.491C64.2114 340.324 63.8651 340.075 63.5829 339.763C63.3002 339.451 63.0882 339.081 62.961 338.679C62.8333 338.278 62.7938 337.854 62.8446 337.436L66.852 295.747C66.9519 294.853 67.3735 294.026 68.0383 293.42C68.703 292.813 69.5652 292.469 70.465 292.451H172.518C172.939 292.443 173.357 292.525 173.743 292.693C174.13 292.859 174.476 293.108 174.759 293.42C175.041 293.733 175.253 294.102 175.381 294.504C175.508 294.906 175.548 295.33 175.497 295.747L171.49 337.436C171.39 338.33 170.968 339.157 170.303 339.764C169.639 340.37 168.776 340.714 167.876 340.732Z" fill="#FEBB94"/>
<path d="M75.4048 303.323H138.386" stroke="#EF6A77" stroke-width="5.50733" stroke-miterlimit="10" stroke-linecap="round"/>
<path d="M75.4048 303.323H119.171" stroke="white" stroke-width="5.50733" stroke-miterlimit="10" stroke-linecap="round"/>
<path d="M74.4625 316.592H137.444" stroke="#EF6A77" stroke-width="5.50733" stroke-miterlimit="10" stroke-linecap="round"/>
<path d="M74.4625 316.592H100.629" stroke="white" stroke-width="5.50733" stroke-miterlimit="10" stroke-linecap="round"/>
<path d="M72.4033 329.861H135.384" stroke="#EF6A77" stroke-width="5.50733" stroke-miterlimit="10" stroke-linecap="round"/>
<path d="M72.4033 329.861H88.405" stroke="white" stroke-width="5.50733" stroke-miterlimit="10" stroke-linecap="round"/>
<path d="M160.68 307.086C162.759 307.086 164.443 305.401 164.443 303.323C164.443 301.245 162.759 299.56 160.68 299.56C158.602 299.56 156.917 301.245 156.917 303.323C156.917 305.401 158.602 307.086 160.68 307.086Z" fill="white"/>
<path d="M159.46 319.774C161.538 319.774 163.223 318.09 163.223 316.011C163.223 313.933 161.538 312.248 159.46 312.248C157.381 312.248 155.696 313.933 155.696 316.011C155.696 318.09 157.381 319.774 159.46 319.774Z" fill="white"/>
<path d="M158.098 333.624C160.176 333.624 161.861 331.939 161.861 329.861C161.861 327.782 160.176 326.097 158.098 326.097C156.019 326.097 154.334 327.782 154.334 329.861C154.334 331.939 156.019 333.624 158.098 333.624Z" fill="white"/>
</g>
<defs>
<filter id="filter0_d" x="0" y="2.28882e-05" width="405.406" height="402.333" filterUnits="userSpaceOnUse" color-interpolation-filters="sRGB">
<feFlood flood-opacity="0" result="BackgroundImageFix"/>
<feColorMatrix in="SourceAlpha" type="matrix" values="0 0 0 0 0 0 0 0 0 0 0 0 0 0 0 0 0 0 127 0" result="hardAlpha"/>
<feOffset dy="4"/>
<feGaussianBlur stdDeviation="2"/>
<feComposite in2="hardAlpha" operator="out"/>
<feColorMatrix type="matrix" values="0 0 0 0 0 0 0 0 0 0 0 0 0 0 0 0 0 0 0.25 0"/>
<feBlend mode="normal" in2="BackgroundImageFix" result="effect1_dropShadow"/>
<feBlend mode="normal" in="SourceGraphic" in2="effect1_dropShadow" result="shape"/>
</filter>
<linearGradient id="paint0_linear" x1="187.362" y1="-47.4249" x2="321.085" y2="622.693" gradientUnits="userSpaceOnUse">
<stop stop-color="white"/>
<stop offset="1" stop-color="#94B9FF"/>
</linearGradient>
<linearGradient id="paint1_linear" x1="203.155" y1="66.5325" x2="216.121" y2="268.369" gradientUnits="userSpaceOnUse">
<stop stop-color="white"/>
<stop offset="1" stop-color="#94B9FF"/>
</linearGradient>
<linearGradient id="paint2_linear" x1="241.673" y1="169.927" x2="262.882" y2="345.541" gradientUnits="userSpaceOnUse">
<stop stop-color="white"/>
<stop offset="1" stop-color="#94B9FF"/>
</linearGradient>
<linearGradient id="paint3_linear" x1="196.176" y1="259.221" x2="199.912" y2="362.657" gradientUnits="userSpaceOnUse">
<stop stop-color="white"/>
<stop offset="1" stop-color="#94B9FF"/>
</linearGradient>
<linearGradient id="paint4_linear" x1="358.528" y1="51.6563" x2="361.714" y2="93.3865" gradientUnits="userSpaceOnUse">
<stop stop-color="white"/>
<stop offset="1" stop-color="#94B9FF"/>
</linearGradient>
</defs>
</svg>
